<?xml version="1.0" encoding="UTF-8" standalone="no"?>
<svg
   xmlns:dc="http://purl.org/dc/elements/1.1/"
   xmlns:cc="http://creativecommons.org/ns#"
   xmlns:rdf="http://www.w3.org/1999/02/22-rdf-syntax-ns#"
   xmlns:svg="http://www.w3.org/2000/svg"
   xmlns="http://www.w3.org/2000/svg"
   id="svg8"
   version="1.1"
   viewBox="0 0 264.58333 264.58333"
   height="1000"
   width="1000">
  <defs
     id="defs2" />
  <metadata
     id="metadata5">
    <rdf:RDF>
      <cc:Work
         rdf:about="">
        <dc:format>image/svg+xml</dc:format>
        <dc:type
           rdf:resource="http://purl.org/dc/dcmitype/StillImage" />
        <dc:title></dc:title>
      </cc:Work>
    </rdf:RDF>
  </metadata>
  <g
     transform="translate(0,-32.416684)"
     id="layer1">
    <path
       style="fill:#666666;stroke-width:0.38860676"
       d="M 213.12187,90.095843 H 51.461459 c -10.301974,0 -18.653125,8.351165 -18.653125,18.653127 v 111.91876 c 0,10.30196 8.351151,18.65313 18.653125,18.65313 H 213.12187 c 10.30196,0 18.65313,-8.35117 18.65313,-18.65313 V 108.74897 c 0,-10.301962 -8.35117,-18.653127 -18.65313,-18.653127 z M 210.79023,220.66773 H 53.7931 a 2.3316406,2.3316406 0 0 1 -2.331641,-2.33164 V 111.08061 a 2.3316406,2.3316406 0 0 1 2.331641,-2.33164 h 156.99713 a 2.3316406,2.3316406 0 0 1 2.33164,2.33164 v 107.25548 a 2.3316406,2.3316406 0 0 1 -2.33164,2.33164 z M 82.549991,124.29325 c -8.584712,0 -15.544266,6.95955 -15.544266,15.54427 0,8.58471 6.959554,15.54426 15.544266,15.54426 8.584704,0 15.544273,-6.95955 15.544273,-15.54426 0,-8.58472 -6.959569,-15.54427 -15.544273,-15.54427 z M 70.114584,202.01461 H 194.46875 v -31.08855 l -34.00894,-34.00892 c -1.821,-1.82101 -4.77364,-1.82101 -6.59504,0 l -46.44394,46.44434 -15.355799,-15.35579 c -1.821015,-1.82102 -4.773658,-1.82102 -6.595055,0 l -15.355392,15.35579 z"
       id="path280" />
  </g>
</svg>
